# xmcd
#
# Track frame offsets: 
#        150
#        23973
#        52903
#        67364
#        85224
#        99893
#        124500
#        143265
#        162444
#        181908
#        203272
#        219209
#        243538
#        258494
#        274705
#        292532
#
# Disc length: 4075 seconds
#
# Revision: 4
# Processed by: cddbd v1.5.1PL2 Copyright (c) Steve Scherf et al.
# Submitted via: ExactAudioCopy v0.90b4
#
DISCID=d10fe910
DTITLE=Various Artist - He Sings The Blues - 2
DYEAR=1900
DGENRE=
TTITLE0=The Very Thought Of You
TTITLE1=The Way You Look Tonight
TTITLE2=Stormy Weather
TTITLE3=I Fall In Love Too Easily
TTITLE4=I Got The World On A String
TTITLE5=I Wish You Love
TTITLE6=We Have All The Time In The World
TTITLE7=Softly As I Leave You
TTITLE8=Blue Moon
TTITLE9=Georgia On My Mind
TTITLE10=By The Time I Get To Phoenix
TTITLE11=If Not You
TTITLE12=Lady
TTITLE13=An I Love You So
TTITLE14=Crazy
TTITLE15=The Party's Over
EXTD=
EXTT0=
EXTT1=
EXTT2=
EXTT3=
EXTT4=
EXTT5=
EXTT6=
EXTT7=
EXTT8=
EXTT9=
EXTT10=
EXTT11=
EXTT12=
EXTT13=
EXTT14=
EXTT15=
PLAYORDER=
